<?xml version="1.0" standalone="no"?>
<!DOCTYPE svg PUBLIC "-//W3C//DTD SVG 1.1//EN" "http://www.w3.org/Graphics/SVG/1.1/DTD/svg11.dtd"><svg t="1575612179543"
  class="icon" viewBox="0 0 1024 1024" version="1.1" xmlns="http://www.w3.org/2000/svg" p-id="1216"
  xmlns:xlink="http://www.w3.org/1999/xlink" width="200" height="200">
  <path stroke="null" fill="#1296db"
    d="m990.239287,480.370397l-85.399885,-14.865902a393.472027,393.472027 0 0 0 -29.099218,-106.275397l67.054729,-55.984367a33.527358,33.527358 0 0 0 -31.629588,-57.565838l-83.185802,31.629574a397.900166,397.900166 0 0 0 -77.176192,-76.227293l31.629588,-83.818401a33.527358,33.527358 0 0 0 -57.565838,-31.629574l-57.249552,68.636199a393.788313,393.788313 0 0 0 -104.377627,-27.517748l-19.610341,-92.990979a33.527358,33.527358 0 0 0 -66.42213,0l-15.498501,88.56284a393.788313,393.788313 0 0 0 -104.377627,27.517734l-55.668068,-68.636186a33.527358,33.527358 0 0 0 -57.565838,31.629574l31.629588,83.818401a397.900166,397.900166 0 0 0 -77.176192,76.227293l-83.185802,-31.629574a33.527358,33.527358 0 0 0 -31.629588,57.565838l67.054729,55.984354a393.472027,393.472027 0 0 0 -29.099218,106.27541l-87.930254,19.294041a33.527358,33.527358 0 0 0 0,66.42213l84.451,14.549616a393.788313,393.788313 0 0 0 27.83402,108.489466l-64.840646,52.505113a33.527358,33.527358 0 0 0 31.629588,57.565838l79.073962,-29.099218a397.900166,397.900166 0 0 0 79.390248,80.339147l-28.782919,78.441363a33.527358,33.527358 0 0 0 57.565851,31.629588l52.821399,-63.259162a393.788313,393.788313 0 0 0 110.070951,29.415504l17.396271,82.869516a33.527358,33.527358 0 0 0 66.42213,0l14.233316,-81.288032a393.788313,393.788313 0 0 0 109.122065,-29.731817l52.821399,63.259175a33.527358,33.527358 0 0 0 57.565851,-31.629588l-28.782932,-78.441363a397.900166,397.900166 0 0 0 79.390262,-80.339147l79.073962,29.099218a33.527358,33.527358 0 0 0 31.629574,-57.565838l-64.840646,-54.086597a393.788313,393.788313 0 0 0 27.834034,-108.489466l85.399885,-17.396271a33.527358,33.527358 0 0 0 0,-66.42213l0,3.162955zm-193.573052,35.108842a284.666247,284.666247 0 0 1 -21.824424,109.754651l-231.212249,-133.793131l0,-258.729997a284.666247,284.666247 0 0 1 253.036673,282.768477zm-316.295848,-282.768477l0,259.362583l-230.263364,132.84426a284.666247,284.666247 0 0 1 230.263364,-392.206842zm31.629588,567.434724a284.666247,284.666247 0 0 1 -231.844848,-119.876114l231.844848,-133.793145l231.844848,133.793145a284.666247,284.666247 0 0 1 -231.844848,119.876114z" />
</svg>